<?xml version="1.0" encoding="utf-8"?>
<!-- Generator: Adobe Illustrator 17.0.0, SVG Export Plug-In . SVG Version: 6.00 Build 0)  -->
<!DOCTYPE svg PUBLIC "-//W3C//DTD SVG 1.1//EN" "http://www.w3.org/Graphics/SVG/1.1/DTD/svg11.dtd">
<svg version="1.1" id="Layer_1" xmlns="http://www.w3.org/2000/svg" xmlns:xlink="http://www.w3.org/1999/xlink" x="0px" y="0px"
	 width="600px" height="173.305px" viewBox="0 0 600 173.305" enable-background="new 0 0 600 173.305" xml:space="preserve">
<g>
	<path fill="#FFFFFF" d="M369.71,35.013c-11.183,0-21.272,4.745-28.381,12.32c-7.108-7.575-17.198-12.32-28.38-12.32
		c-21.47,0-38.937,17.467-38.937,38.937v46.923c0,5.83,4.726,10.557,10.557,10.557s10.557-4.727,10.557-10.557V73.951
		c0-9.828,7.996-17.824,17.824-17.824s17.824,7.996,17.824,17.824v46.923c0,5.83,4.727,10.557,10.557,10.557
		s10.557-4.727,10.557-10.557V73.951c0-9.828,7.996-17.824,17.825-17.824c9.828,0,17.824,7.996,17.824,17.824v46.923
		c0,5.83,4.727,10.557,10.557,10.557s10.557-4.727,10.557-10.557V73.951C408.646,52.481,391.18,35.013,369.71,35.013z"/>
	<g>
		<path fill="#FFFFFF" d="M431.974,131.43c-5.83,0-10.557-4.727-10.557-10.557V45.57c0-5.83,4.727-10.557,10.557-10.557
			s10.557,4.726,10.557,10.557v75.303C442.531,126.703,437.804,131.43,431.974,131.43z"/>
	</g>
	<g>
		<circle fill="#FFFFFF" cx="431.974" cy="11.613" r="11.084"/>
	</g>
	<path fill="#FFFFFF" d="M514.78,117.943c-1.618-5.601-7.469-8.826-13.072-7.212c-4.823,1.393-8.957,2.047-13.008,2.058
		c-0.005,0-0.01,0-0.015,0c-1.633,0-3.233-0.661-4.39-1.814c-1.177-1.175-1.826-2.738-1.826-4.402V54.807h14.449
		c5.101,0,9.237-4.136,9.237-9.237s-4.136-9.237-9.237-9.237h-14.449V17.331c0-5.83-4.727-10.557-10.557-10.557
		s-10.557,4.726-10.557,10.557v19.002h-5.915c-5.101,0-9.237,4.136-9.237,9.237s4.136,9.237,9.237,9.237h5.915v51.765
		c0,7.312,2.85,14.183,8.029,19.349c5.087,5.074,12.118,7.98,19.302,7.98c0.023,0,0.045,0,0.068,0
		c6.072-0.016,12.05-0.933,18.813-2.887C513.169,129.397,516.398,123.545,514.78,117.943z"/>
	<path fill="#FFFFFF" d="M266.236,117.322L229.904,15.627c-0.001-0.003-0.003-0.006-0.004-0.009
		c-0.118-0.329-0.252-0.652-0.402-0.968c-0.072-0.153-0.158-0.296-0.237-0.444c-0.082-0.154-0.159-0.311-0.248-0.46
		c-0.107-0.179-0.226-0.346-0.343-0.517c-0.077-0.113-0.148-0.229-0.229-0.338c-0.117-0.158-0.245-0.306-0.37-0.456
		c-0.096-0.115-0.186-0.234-0.287-0.345c-0.115-0.127-0.239-0.243-0.359-0.364c-0.124-0.124-0.245-0.252-0.375-0.37
		c-0.108-0.097-0.222-0.185-0.334-0.278c-0.154-0.128-0.305-0.259-0.467-0.379c-0.106-0.078-0.218-0.147-0.327-0.221
		c-0.174-0.119-0.346-0.241-0.528-0.35c-0.144-0.086-0.294-0.159-0.442-0.238c-0.154-0.083-0.303-0.171-0.463-0.247
		c-0.315-0.15-0.637-0.283-0.966-0.401c-0.003-0.001-0.007-0.003-0.01-0.004c-0.054-0.019-0.109-0.031-0.163-0.049
		c-0.274-0.093-0.549-0.18-0.83-0.25c-0.132-0.033-0.264-0.053-0.395-0.081c-0.206-0.043-0.41-0.089-0.619-0.12
		c-0.162-0.024-0.322-0.035-0.484-0.051c-0.181-0.018-0.361-0.041-0.543-0.05c-0.176-0.009-0.35-0.004-0.525-0.004
		c-0.169,0-0.336-0.004-0.506,0.004c-0.189,0.009-0.376,0.032-0.564,0.052c-0.154,0.016-0.309,0.026-0.463,0.049
		c-0.216,0.032-0.428,0.079-0.641,0.124c-0.125,0.027-0.25,0.046-0.375,0.077c-0.283,0.071-0.562,0.158-0.837,0.252
		c-0.052,0.018-0.105,0.029-0.157,0.047c-0.003,0.001-0.007,0.003-0.01,0.004c-0.328,0.118-0.651,0.251-0.966,0.401
		c-0.161,0.076-0.313,0.166-0.468,0.25c-0.145,0.078-0.294,0.15-0.435,0.235c-0.184,0.11-0.358,0.233-0.533,0.354
		c-0.107,0.073-0.217,0.14-0.321,0.217c-0.164,0.121-0.317,0.254-0.473,0.384c-0.109,0.091-0.222,0.177-0.328,0.273
		c-0.133,0.12-0.255,0.25-0.381,0.376c-0.119,0.119-0.24,0.234-0.354,0.358c-0.102,0.113-0.195,0.234-0.292,0.351
		c-0.123,0.149-0.25,0.294-0.365,0.45c-0.083,0.112-0.155,0.23-0.234,0.345c-0.115,0.168-0.233,0.334-0.338,0.51
		c-0.091,0.153-0.169,0.312-0.253,0.469c-0.077,0.145-0.161,0.285-0.232,0.435c-0.15,0.316-0.284,0.639-0.402,0.968
		c-0.001,0.003-0.003,0.006-0.004,0.009l-36.332,101.695c-1.961,5.491,0.899,11.531,6.39,13.493c1.174,0.42,2.372,0.619,3.551,0.619
		c4.336,0,8.399-2.692,9.942-7.008l6.628-18.552c0.522,0.079,1.053,0.134,1.597,0.134h37.977l6.58,18.418
		c1.542,4.317,5.606,7.008,9.942,7.008c1.178,0,2.378-0.199,3.551-0.619C265.337,128.853,268.198,122.812,266.236,117.322z
		 M207.695,84.893l12.268-34.338l12.268,34.338H207.695z"/>
	<path fill="#FFFFFF" d="M589.443,35.013c-5.83,0-10.557,4.726-10.557,10.557v57.401c-8.669,7.97-16.132,9.994-24.903,10.524
		c-3.738,0.213-7.473-1.124-10.208-3.702c-2.733-2.575-4.301-6.214-4.301-9.982V45.57c0-5.83-4.727-10.557-10.557-10.557
		s-10.557,4.726-10.557,10.557v54.241c0,9.56,3.984,18.798,10.933,25.347c6.454,6.082,15.063,9.474,23.892,9.474
		c0.689,0,1.378-0.021,2.068-0.063c8.461-0.51,18.046-4.678,23.633-12.068v16.407c0,7.325-5.96,13.283-13.284,13.283h-23.664
		c-5.83,0-10.557,4.727-10.557,10.557s4.727,10.557,10.557,10.557h23.664c18.967,0,34.398-15.43,34.398-34.397V45.57
		C600,39.74,595.273,35.013,589.443,35.013z"/>
	<path fill="#FFFFFF" d="M56.687,67.387c18.264-7.692,31.152-20.16,37.889-39.079L81.944,6.428
		c-1.915-3.317-5.455-5.361-9.285-5.361c-3.831,0-7.37,2.044-9.285,5.361L1.436,113.706c-1.915,3.317-1.915,7.404,0,10.722
		c1.915,3.317,5.455,5.361,9.285,5.361C12.076,106.407,24.317,81.02,56.687,67.387z"/>
	<path fill="#FFFFFF" d="M143.881,113.706l-41.578-72.015c-5.293,16.04-16.412,24.86-32.244,38.716
		c-17.827,15.602-24,28.61-25.738,49.382h90.274c3.83,0,7.37-2.044,9.285-5.361C145.796,121.11,145.796,117.023,143.881,113.706z"/>
</g>
</svg>
